Coordinates
version=1
nRows=11
nColumns=40
inDegrees=yes

Units are S.I. units (second, meters, Newtons, ...)
Angles are in degrees.

endheader
time	pelvis_tilt	pelvis_list	pelvis_rotation	pelvis_tx	pelvis_ty	pelvis_tz	hip_flexion_r	hip_adduction_r	hip_rotation_r	knee_angle_r	knee_angle_r_beta	ankle_angle_r	subtalar_angle_r	mtp_angle_r	hip_flexion_l	hip_adduction_l	hip_rotation_l	knee_angle_l	knee_angle_l_beta	ankle_angle_l	subtalar_angle_l	mtp_angle_l	lumbar_extension	lumbar_bending	lumbar_rotation	arm_flex_r	arm_add_r	arm_rot_r	elbow_flex_r	pro_sup_r	wrist_flex_r	wrist_dev_r	arm_flex_l	arm_add_l	arm_rot_l	elbow_flex_l	pro_sup_l	wrist_flex_l	wrist_dev_l
     23.80000000	     -6.56435707	     -4.80750850	      5.85058127	      0.93727410	      0.91344512	      0.51180305	      8.65963741	      2.80536357	    -10.60805773	     22.32741040	     22.32741040	     19.83998011	     -8.47596542	     -0.18637889	     32.32742535	     -7.02481988	      5.76952156	     24.19036450	     24.19036450	      5.95709373	     -9.02801676	      5.05303721	    -10.62349212	      2.91720499	      1.92751250	     46.88126341	    -14.56136532	      4.04849734	    109.71275667	     43.29908971	      0.00000000	      0.00000000	    -10.40250773	    -11.20888044	     -2.66650317	     29.33579593	     46.87429795	      0.00000000	      0.00000000
     23.81957143	     -6.67814469	     -4.99240987	      6.19342271	      0.93796553	      0.91239433	      0.50699961	      8.51776781	      2.69099095	    -10.68273572	     22.73578919	     22.73578919	     19.96449481	     -8.92613132	     -0.24721258	     32.47197237	     -6.89380904	      5.68143453	     24.65511891	     24.65511891	      5.50714280	     -8.93405338	      3.56157125	    -10.64275802	      2.80757102	      2.14113823	     48.66452010	    -14.60078530	      4.56990255	    111.84665979	     43.28351216	      0.00000000	      0.00000000	    -10.05898626	    -10.79891891	     -3.26177083	     29.80570414	     46.94360124	      0.00000000	      0.00000000
     23.83914286	     -6.75176952	     -5.17634916	      6.51301149	      0.93863415	      0.91139219	      0.50206920	      8.38204667	      2.53774889	    -10.81441711	     23.24166685	     23.24166685	     20.07615272	     -9.23932234	     -0.33420326	     32.67121439	     -6.70499487	      5.77085914	     25.53927230	     25.53927230	      5.61651945	     -9.07751935	      3.03378145	    -10.65339351	      2.73926032	      2.21588003	     50.33179073	    -14.13925405	      4.60267342	    112.96343094	     43.26780022	      0.00000000	      0.00000000	     -9.57153586	    -10.46099383	     -3.33678472	     29.99891776	     46.95653353	      0.00000000	      0.00000000
     23.85871429	     -6.84392646	     -5.39825253	      6.80274573	      0.93932905	      0.91055944	      0.49718519	      8.25896436	      2.42901895	    -10.94531383	     23.71845094	     23.71845094	     20.10204445	     -9.52870624	     -0.39315615	     32.86852008	     -6.56510412	      5.81664259	     26.50412723	     26.50412723	      5.88535826	     -9.17994436	      2.45703608	    -10.67369546	      2.71514370	      2.23341458	     51.54689552	    -13.62486374	      4.76191950	    114.17183567	     43.24179102	      0.00000000	      0.00000000	     -8.98562533	    -10.11813263	     -3.42428926	     30.27927837	     46.97313815	      0.00000000	      0.00000000
     23.87828571	     -6.96153046	     -5.66990828	      7.05681045	      0.94011717	      0.91001546	      0.49244206	      8.09487323	      2.40811228	    -11.04945144	     24.03816005	     24.03816005	     19.96905356	     -9.86213375	     -0.45807542	     33.00419724	     -6.55265543	      5.68847112	     27.35980143	     27.35980143	      6.18163309	     -8.90261673	      1.39574520	    -10.69505245	      2.71077495	      2.49865579	     52.06013959	    -13.60713608	      4.95081862	    116.46472468	     43.23456884	      0.00000000	      0.00000000	     -8.30256060	     -9.68593906	     -4.27283531	     31.04204940	     47.06957122	      0.00000000	      0.00000000
     23.89785714	     -7.06865030	     -5.92794556	      7.26278689	      0.94088147	      0.90990281	      0.48775811	      7.86683581	      2.35125944	    -11.25628034	     24.26145013	     24.26145013	     19.79234197	     -9.88048193	     -0.46715740	     33.01226204	     -6.46393610	      5.79960647	     28.07595722	     28.07595722	      6.65962021	     -9.00879741	      1.02498262	    -10.63844545	      2.73749861	      2.52357284	     52.59877749	    -13.06876129	      5.01311415	    117.05910739	     43.22821990	      0.00000000	      0.00000000	     -7.51824465	     -9.38454212	     -4.34112320	     31.42273293	     47.08476522	      0.00000000	      0.00000000
     23.91742857	     -7.21241201	     -6.18510844	      7.42606813	      0.94169945	      0.91022958	      0.48331508	      7.56918911	      2.30489865	    -11.57474962	     24.25608350	     24.25608350	     19.42132245	     -9.71119286	     -0.64654896	     32.94595773	     -6.48402211	      5.65198942	     28.59907508	     28.59907508	      7.34041067	     -8.51907376	      0.76428523	    -10.59689509	      2.72554285	      2.62970022	     52.60650143	    -12.68447762	      4.90916638	    118.35629370	     43.23864317	      0.00000000	      0.00000000	     -6.77300681	     -9.08320086	     -4.84909840	     32.41166560	     47.13787015	      0.00000000	      0.00000000
     23.93700000	     -7.36983743	     -6.43862604	      7.53236417	      0.94247946	      0.91092952	      0.47902800	      7.24879067	      2.27534563	    -11.83213943	     24.15695976	     24.15695976	     19.00611118	     -9.48868499	     -0.65366836	     32.74043474	     -6.46622195	      5.69342409	     28.84709867	     28.84709867	      7.91931498	     -8.40510836	      0.58705551	    -10.46435116	      2.76788497	      2.72730985	     52.58913720	    -12.29093030	      4.98501511	    118.65342480	     43.24217664	      0.00000000	      0.00000000	     -5.87456614	     -8.86903844	     -4.96049429	     33.09950547	     47.15752118	      0.00000000	      0.00000000
     23.95657143	     -7.54557745	     -6.63626793	      7.60897704	      0.94329818	      0.91200017	      0.47493018	      6.86733976	      2.16895880	    -12.25947564	     23.90189120	     23.90189120	     18.33185015	     -9.00513172	     -1.24598761	     32.44936476	     -6.48995573	      5.47437444	     28.91548486	     28.91548486	      8.69579646	     -7.72689599	      0.75735671	    -10.34433407	      2.71380692	      2.87660812	     52.24862446	    -12.10910246	      4.82381377	    119.24798507	     43.28572644	      0.00000000	      0.00000000	     -5.25422834	     -8.72927735	     -5.44100918	     34.93313047	     47.19421519	      0.00000000	      0.00000000
     23.97614286	     -7.82016378	     -6.81504051	      7.62720041	      0.94385968	      0.91314764	      0.47100854	      6.71681515	      2.07121024	    -12.43920029	     23.83806266	     23.83806266	     17.78680640	     -8.87851326	     -1.11318942	     32.15744396	     -6.41896306	      5.50956513	     28.74486070	     28.74486070	      9.11436853	     -7.65574395	      0.65484731	    -10.10546876	      2.68236549	      2.81768840	     52.03300623	    -11.82455900	      4.99413995	    119.15490975	     43.28507622	      0.00000000	      0.00000000	     -4.24268905	     -8.67639125	     -5.43277193	     35.45354349	     47.20723079	      0.00000000	      0.00000000
     23.99571429	     -7.94976755	     -6.94661321	      7.56579885	      0.94468114	      0.91498639	      0.46721153	      6.19306214	      1.94797800	    -12.75377785	     23.37389875	     23.37389875	     17.09085645	     -8.21939843	     -1.23294640	     31.45605990	     -6.42963290	      5.27103155	     28.16386674	     28.16386674	      9.50761230	     -7.22831231	      0.73592388	     -9.91082059	      2.72347649	      3.10453182	     51.30355593	    -11.75062595	      5.17011131	    118.61243642	     43.30562886	      0.00000000	      0.00000000	     -3.28967086	     -8.62331506	     -5.50402450	     36.65439394	     47.22545572	      0.00000000	      0.00000000
